<svg width="170" height="76" viewBox="0 0 170 76" fill="none" xmlns="http://www.w3.org/2000/svg">
    <path d="M27.72 40.698C26.607 40.698 26.0505 39.9525 26.0505 38.4615V3.3075H12.978C11.55 3.3075 10.563 3.5805 10.017 4.1265C9.492 4.6725 9.2295 5.6385 9.2295 7.0245V32.193C9.2295 34.335 8.9775 35.994 8.4735 37.17C7.9905 38.325 7.2345 39.1335 6.2055 39.5955C5.1765 40.0365 3.8745 40.257 2.2995 40.257C0.7665 40.257 0 39.7005 0 38.5875C0 37.4955 0.777 36.9495 2.331 36.9495C3.612 36.9495 4.494 36.687 4.977 36.162C5.481 35.616 5.733 34.6605 5.733 33.2955V8.0325C5.733 6.0165 5.9325 4.431 6.3315 3.276C6.7515 2.1 7.455 1.26 8.442 0.756002C9.429 0.252001 10.794 0 12.537 0H29.358V38.4615C29.358 39.9525 28.812 40.698 27.72 40.698Z"
          fill="#2B6515"/>
    <path d="M27.67 71.698C26.557 71.698 26.0005 70.9735 26.0005 69.5245V32.7955C26.0005 31.3045 26.515 30.559 27.544 30.559C28.258 30.559 28.888 30.958 29.434 31.756L41.1835 49.27L52.996 31.756C53.542 30.958 54.1615 30.559 54.8545 30.559C55.9045 30.559 56.4295 31.3045 56.4295 32.7955V69.5245C56.4295 70.9735 55.8835 71.698 54.7915 71.698C53.6785 71.698 53.122 70.9525 53.122 69.4615V36.8905L42.601 52.735C42.349 53.134 42.118 53.3965 41.908 53.5225C41.719 53.6275 41.4985 53.68 41.2465 53.68C41.0155 53.68 40.7845 53.6275 40.5535 53.5225C40.3435 53.3965 40.1125 53.134 39.8605 52.735L29.308 36.8905V69.4615C29.308 70.9525 28.762 71.698 27.67 71.698Z"
          fill="#2B6515"/>
    <path d="M72.853 71.2375C70.2863 71.2375 68.1947 70.9875 66.578 70.4875C64.9613 69.9708 63.7613 69.0708 62.978 67.7875C62.2113 66.5042 61.828 64.6958 61.828 62.3625V56.8875C61.828 54.5708 62.2113 52.7708 62.978 51.4875C63.7613 50.2042 64.9613 49.3125 66.578 48.8125C68.1947 48.2958 70.2863 48.0375 72.853 48.0375H74.303C76.853 48.0375 78.9363 48.2958 80.553 48.8125C82.1863 49.3125 83.3863 50.2042 84.153 51.4875C84.9197 52.7708 85.303 54.5708 85.303 56.8875V58.9125H64.453V62.3375C64.453 64.1042 64.6947 65.4375 65.178 66.3375C65.6613 67.2375 66.5113 67.8458 67.728 68.1625C68.9613 68.4625 70.6697 68.6125 72.853 68.6125H79.803C80.853 68.6125 81.5697 68.3875 81.953 67.9375C82.353 67.4875 82.553 66.7458 82.553 65.7125C82.553 65.0958 82.678 64.6375 82.928 64.3375C83.1947 64.0208 83.503 63.8625 83.853 63.8625C84.2363 63.8625 84.553 64.0125 84.803 64.3125C85.053 64.6125 85.178 65.0375 85.178 65.5875C85.178 66.6875 85.0447 67.6708 84.778 68.5375C84.5113 69.3875 84.0197 70.0542 83.303 70.5375C82.5863 71.0042 81.5363 71.2375 80.153 71.2375H72.853ZM64.453 56.2875H82.653C82.6197 54.1875 82.1113 52.7458 81.128 51.9625C80.5113 51.4458 79.6363 51.1042 78.503 50.9375C77.3863 50.7542 75.9863 50.6625 74.303 50.6625H72.853C71.1863 50.6625 69.803 50.7458 68.703 50.9125C67.603 51.0625 66.7363 51.3625 66.103 51.8125C65.0363 52.5792 64.4863 54.0708 64.453 56.2875Z"
          fill="#2B6515"/>
    <path d="M90.0225 75.8375C89.1392 75.8375 88.6975 75.2458 88.6975 74.0625V71.5375C88.6975 69.5708 89.5809 68.5958 91.3475 68.6125H92.8725L91.3725 69.2375C94.9559 63.5042 96.7475 56.4375 96.7475 48.0375H109.898V68.6125H112.048C113.748 68.6125 114.598 69.5875 114.598 71.5375V74.0625C114.598 75.2458 114.164 75.8375 113.298 75.8375C112.414 75.8375 111.973 75.2458 111.973 74.0625V71.2375H91.3225V74.0625C91.3225 75.2458 90.8892 75.8375 90.0225 75.8375ZM94.6725 68.6125H107.248V50.6625H99.4225C99.3725 57.2458 97.7892 63.2292 94.6725 68.6125Z"
          fill="#2B6515"/>
    <path d="M140.76 71.5875C139.894 71.5875 139.46 70.9792 139.46 69.7625V51.6875L122.285 71.2375H119.485V49.4625C119.485 48.2792 119.919 47.6875 120.785 47.6875C121.669 47.6875 122.11 48.2875 122.11 49.4875V67.7625L139.41 48.0375H142.085V69.8125C142.085 70.9958 141.644 71.5875 140.76 71.5875Z"
          fill="#2B6515"/>
    <path d="M168.342 71.5875C167.909 71.5875 167.609 71.4292 167.442 71.1125C167.275 70.7958 167.175 70.2542 167.142 69.4875C167.125 68.7042 167.109 67.6208 167.092 66.2375L167.492 67.1875C166.559 68.5875 165.359 69.6125 163.892 70.2625C162.425 70.9125 160.684 71.2375 158.667 71.2375H154.017C152.434 71.2375 151.142 70.6875 150.142 69.5875C149.159 68.4875 148.667 66.7875 148.667 64.4875C148.667 62.6542 148.975 61.2042 149.592 60.1375C150.209 59.0708 151.042 58.2708 152.092 57.7375C153.159 57.2042 154.342 56.8542 155.642 56.6875C156.959 56.5208 158.309 56.4375 159.692 56.4375H168.217L167.042 57.5875V53.5375C167.042 52.4708 166.842 51.7292 166.442 51.3125C166.059 50.8792 165.342 50.6625 164.292 50.6625H157.242C155.825 50.6625 154.675 50.7708 153.792 50.9875C152.925 51.1875 152.292 51.5042 151.892 51.9375C151.492 52.3708 151.292 52.9292 151.292 53.6125C151.275 54.1458 151.184 54.5542 151.017 54.8375C150.867 55.1208 150.517 55.2625 149.967 55.2625C149.1 55.2625 148.667 54.6375 148.667 53.3875C148.667 51.6042 149.4 50.2708 150.867 49.3875C152.35 48.4875 154.359 48.0375 156.892 48.0375H164.642C166.559 48.0375 167.875 48.5042 168.592 49.4375C169.309 50.3542 169.667 52.0042 169.667 54.3875V69.8625C169.667 71.0125 169.225 71.5875 168.342 71.5875ZM154.067 68.6625H158.667C161.734 68.6625 163.909 67.7958 165.192 66.0625C166.492 64.3125 167.109 61.7292 167.042 58.3125L167.817 59.0125H159.692C157.842 59.0125 156.292 59.1375 155.042 59.3875C153.792 59.6208 152.85 60.1125 152.217 60.8625C151.6 61.6125 151.292 62.7458 151.292 64.2625C151.292 65.8292 151.567 66.9542 152.117 67.6375C152.684 68.3208 153.334 68.6625 154.067 68.6625Z"
          fill="#2B6515"/>
    <path d="M44.473 31.4005C44.2303 31.4005 44.0623 31.3118 43.969 31.1345C43.8757 30.9572 43.8197 30.6538 43.801 30.2245C43.7917 29.7858 43.7823 29.1792 43.773 28.4045L43.997 28.9365C43.4743 29.7205 42.8023 30.2945 41.981 30.6585C41.1597 31.0225 40.1843 31.2045 39.055 31.2045H36.451C35.5643 31.2045 34.841 30.8965 34.281 30.2805C33.7303 29.6645 33.455 28.7125 33.455 27.4245C33.455 26.3978 33.6277 25.5858 33.973 24.9885C34.3183 24.3912 34.785 23.9432 35.373 23.6445C35.9703 23.3458 36.633 23.1498 37.361 23.0565C38.0983 22.9632 38.8543 22.9165 39.629 22.9165H44.403L43.745 23.5605V21.2925C43.745 20.6952 43.633 20.2798 43.409 20.0465C43.1943 19.8038 42.793 19.6825 42.205 19.6825H38.257C37.4637 19.6825 36.8197 19.7432 36.325 19.8645C35.8397 19.9765 35.485 20.1538 35.261 20.3965C35.037 20.6392 34.925 20.9518 34.925 21.3345C34.9157 21.6332 34.8643 21.8618 34.771 22.0205C34.687 22.1792 34.491 22.2585 34.183 22.2585C33.6977 22.2585 33.455 21.9085 33.455 21.2085C33.455 20.2098 33.8657 19.4632 34.687 18.9685C35.5177 18.4645 36.6423 18.2125 38.061 18.2125H42.401C43.4743 18.2125 44.2117 18.4738 44.613 18.9965C45.0143 19.5098 45.215 20.4338 45.215 21.7685V30.4345C45.215 31.0785 44.9677 31.4005 44.473 31.4005ZM36.479 29.7625H39.055C40.7723 29.7625 41.9903 29.2772 42.709 28.3065C43.437 27.3265 43.7823 25.8798 43.745 23.9665L44.179 24.3585H39.629C38.593 24.3585 37.725 24.4285 37.025 24.5685C36.325 24.6992 35.7977 24.9745 35.443 25.3945C35.0977 25.8145 34.925 26.4492 34.925 27.2985C34.925 28.1758 35.079 28.8058 35.387 29.1885C35.7043 29.5712 36.0683 29.7625 36.479 29.7625Z"
          fill="#2B6515"/>
    <path d="M61.1562 31.4005C60.6709 31.4005 60.4282 31.0598 60.4282 30.3785V20.2565L50.8102 31.2045H49.2422V19.0105C49.2422 18.3478 49.4849 18.0165 49.9702 18.0165C50.4649 18.0165 50.7122 18.3525 50.7122 19.0245V29.2585L60.4002 18.2125H61.8982V30.4065C61.8982 31.0692 61.6509 31.4005 61.1562 31.4005ZM54.0442 17.1765C53.0922 17.1765 52.4295 16.9385 52.0562 16.4625C51.6829 15.9772 51.4962 15.1232 51.4962 13.9005V13.1305H52.9662V14.3485C52.9662 14.8805 53.0502 15.2398 53.2182 15.4265C53.3955 15.6132 53.7455 15.7065 54.2682 15.7065H57.1242C57.6562 15.7065 58.0015 15.6132 58.1602 15.4265C58.3282 15.2398 58.4122 14.8805 58.4122 14.3485V13.1305H59.8822V13.9005C59.8822 15.1325 59.7002 15.9865 59.3362 16.4625C58.9815 16.9385 58.3095 17.1765 57.3202 17.1765H54.0442Z"
          fill="#2B6515"/>
    <path d="M74.6279 36.3005C74.1426 36.3005 73.8999 35.9692 73.8999 35.3065V29.4125C73.3679 30.0565 72.8312 30.5185 72.2899 30.7985C71.7579 31.0692 71.0812 31.2045 70.2599 31.2045C67.1426 31.2045 65.5839 29.3612 65.5839 25.6745V23.7285C65.5839 20.0512 67.1426 18.2125 70.2599 18.2125C71.0812 18.2125 71.7579 18.3525 72.2899 18.6325C72.8312 18.9032 73.3679 19.3605 73.8999 20.0045V14.0965C73.8999 13.4432 74.1426 13.1165 74.6279 13.1165C75.1226 13.1165 75.3699 13.4432 75.3699 14.0965V20.0045C75.9019 19.3605 76.4386 18.9032 76.9799 18.6325C77.5212 18.3525 78.1932 18.2125 78.9959 18.2125C82.1132 18.2125 83.6719 20.0512 83.6719 23.7285V25.6745C83.6719 27.4758 83.3032 28.8478 82.5659 29.7905C81.8379 30.7332 80.6479 31.2045 78.9959 31.2045C78.1932 31.2045 77.5212 31.0692 76.9799 30.7985C76.4386 30.5185 75.9019 30.0565 75.3699 29.4125V35.3065C75.3699 35.9692 75.1226 36.3005 74.6279 36.3005ZM70.4139 29.7065C71.2726 29.7158 71.9539 29.4825 72.4579 29.0065C72.9712 28.5212 73.3399 27.8958 73.5639 27.1305C73.7879 26.3652 73.8999 25.5532 73.8999 24.6945C73.8999 23.7612 73.7739 22.9165 73.5219 22.1605C73.2792 21.4045 72.8872 20.8025 72.3459 20.3545C71.8139 19.9065 71.1139 19.6825 70.2459 19.6825C69.4806 19.6825 68.8786 19.8038 68.4399 20.0465C68.0106 20.2798 67.6979 20.5925 67.5019 20.9845C67.3059 21.3765 67.1799 21.8105 67.1239 22.2865C67.0772 22.7625 67.0539 23.2432 67.0539 23.7285V25.6745C67.0539 27.0838 67.2872 28.1058 67.7539 28.7405C68.2299 29.3752 69.1166 29.6972 70.4139 29.7065ZM79.0239 29.7345C79.8919 29.7345 80.5546 29.5852 81.0119 29.2865C81.4692 28.9878 81.7819 28.5398 81.9499 27.9425C82.1179 27.3358 82.2019 26.5798 82.2019 25.6745V23.7285C82.2019 22.3285 81.9732 21.3018 81.5159 20.6485C81.0586 19.9858 80.1812 19.6545 78.8839 19.6545C78.0626 19.6545 77.3906 19.8832 76.8679 20.3405C76.3546 20.7978 75.9766 21.4092 75.7339 22.1745C75.4912 22.9398 75.3699 23.7798 75.3699 24.6945C75.3699 25.6372 75.4912 26.4912 75.7339 27.2565C75.9859 28.0125 76.3779 28.6145 76.9099 29.0625C77.4512 29.5105 78.1559 29.7345 79.0239 29.7345Z"
          fill="#2B6515"/>
</svg>
